<svg xmlns="http://www.w3.org/2000/svg" version="1.1" viewBox="-5.0 -10.0 110.0 135.0">
 <path d="m61.551 85.699c-9-6.1992-15.426-17.523-15-32.25 2.6484 18.273 14.125 26.574 25.023 27.227 4.9766-3.5 9.0508-8.1758 11.824-13.602-10.727 1.9766-23.273-1.4766-33.398-12.176 14.801 11.023 28.801 8.7734 36.949 1.5234 0.375-2.1016 0.55078-4.2266 0.55078-6.4258 0-4.0234-0.625-7.9258-1.8008-11.551-6.1992 9-17.5 15.426-32.227 15 18.25-2.6484 26.574-14.125 27.199-25.023-3.5-4.9766-8.1758-9.0508-13.602-11.824 1.9766 10.727-1.4766 23.273-12.176 33.398 11.023-14.773 8.8008-28.801 1.5234-36.949-2.1016-0.35156-4.2266-0.55078-6.4258-0.55078-4.0234 0-7.8984 0.625-11.551 1.8008 9 6.1992 15.426 17.523 15.023 32.227-2.6758-18.25-14.148-26.551-25.051-27.199-4.9766 3.5-9.0508 8.1758-11.824 13.602 10.727-1.9766 23.273 1.4766 33.398 12.176-14.773-11.023-28.801-8.8008-36.949-1.5234-0.35156 2.1016-0.55078 4.2266-0.55078 6.4258 0 4.0234 0.625 7.8984 1.8008 11.551 6.1992-9 17.523-15.426 32.25-15.023-18.273 2.6758-26.574 14.148-27.227 25.051 3.5 4.9766 8.1758 9.0508 13.602 11.824-1.9766-10.727 1.4766-23.273 12.176-33.398-11.023 14.773-8.7734 28.801-1.5234 36.949 2.1016 0.35156 4.2266 0.55078 6.4258 0.55078 4.0234 0 7.9258-0.625 11.551-1.8008z" fill-rule="evenodd"/>
<text x="0.0" y="117.5" font-size="5.0" font-weight="bold" font-family="Arbeit Regular, Helvetica, Arial-Unicode, Arial, Sans-serif" fill="#000000">Created by Pokas Official</text><text x="0.0" y="122.5" font-size="5.0" font-weight="bold" font-family="Arbeit Regular, Helvetica, Arial-Unicode, Arial, Sans-serif" fill="#000000">from Noun Project</text></svg>