<?xml version="1.0" standalone="no"?>
<!DOCTYPE svg PUBLIC "-//W3C//DTD SVG 20010904//EN"
 "http://www.w3.org/TR/2001/REC-SVG-20010904/DTD/svg10.dtd">
<svg version="1.0" xmlns="http://www.w3.org/2000/svg"
 width="736.000000pt" height="736.000000pt" viewBox="0 0 736.000000 736.000000"
 preserveAspectRatio="xMidYMid meet">

<g transform="translate(0.000000,736.000000) scale(0.100000,-0.100000)"
fill="#000000" stroke="none">
<path d="M0 3680 l0 -3680 3680 0 3680 0 0 3680 0 3680 -3680 0 -3680 0 0
-3680z m7350 0 l0 -3670 -3670 0 -3670 0 0 3670 0 3670 3670 0 3670 0 0 -3670z"/>
<path d="M3218 5252 c-63 -34 -129 -69 -147 -80 l-31 -19 75 -32 c85 -38 290
-169 355 -227 65 -58 100 -119 100 -173 0 -95 -69 -179 -194 -236 -261 -121
-519 -70 -861 169 -120 85 -145 85 -290 11 -178 -92 -275 -146 -275 -153 0 -4
51 -33 113 -64 61 -31 184 -98 271 -149 236 -135 348 -173 588 -199 333 -35
625 27 905 192 111 65 185 135 220 207 25 50 28 67 28 156 0 89 -3 107 -29
163 -49 107 -197 228 -484 399 -190 113 -193 114 -344 35z"/>
<path d="M3925 5098 c111 -86 173 -172 211 -294 22 -69 25 -98 23 -172 -4 -78
-8 -97 -41 -163 -105 -212 -311 -341 -663 -415 -150 -32 -447 -44 -602 -24
-285 35 -592 155 -791 309 -136 104 -162 109 -219 44 l-33 -36 0 -381 1 -381
23 56 c114 274 334 398 586 328 89 -24 249 -103 347 -171 151 -105 316 -303
413 -498 142 -283 191 -516 196 -922 2 -168 7 -264 14 -278 14 -26 68 -50 112
-50 25 0 116 48 366 194 184 107 336 196 338 199 3 3 -28 -4 -68 -15 -99 -28
-252 -29 -328 -4 -69 24 -147 75 -183 121 -103 131 -138 342 -102 618 27 207
92 381 218 582 181 291 480 561 812 735 55 29 106 57 113 62 19 16 14 80 -10
128 -22 42 -35 51 -318 208 -384 212 -452 249 -415 220z"/>
<path d="M2863 5044 c-26 -15 -54 -44 -70 -72 -27 -45 -28 -53 -31 -208 -4
-139 -2 -163 12 -177 23 -22 163 -65 255 -78 210 -29 418 51 449 174 13 49 -5
112 -40 140 -34 28 -285 186 -347 218 -73 40 -166 41 -228 3z"/>
<path d="M4694 4465 c-33 -26 -213 -139 -438 -276 -180 -109 -272 -197 -385
-369 -281 -427 -365 -856 -222 -1138 36 -71 113 -145 189 -180 50 -23 70 -27
157 -27 l100 0 147 72 c195 95 459 268 481 316 18 37 22 181 8 299 l-6 57 -70
-55 c-145 -114 -360 -228 -449 -239 -113 -14 -188 54 -221 199 -20 86 -14 169
20 269 33 97 79 169 164 260 92 96 213 179 349 237 129 55 176 94 197 162 17
59 34 438 19 438 -5 0 -23 -11 -40 -25z"/>
<path d="M2220 3899 c-177 -34 -300 -179 -320 -376 -5 -48 -10 -196 -10 -328
0 -276 2 -283 85 -346 45 -35 173 -112 205 -124 13 -4 15 25 15 227 0 317 19
379 131 434 47 23 63 26 118 22 145 -12 285 -125 371 -302 71 -145 77 -176 84
-476 4 -177 10 -272 18 -286 27 -47 124 -121 301 -228 96 -58 108 -64 97 -45
-4 6 -11 158 -16 337 -6 261 -12 346 -28 423 -83 407 -347 772 -709 977 -171
98 -229 113 -342 91z"/>
<path d="M4339 3683 c-164 -110 -279 -315 -279 -498 0 -104 58 -175 145 -175
35 0 73 18 241 116 217 127 237 142 264 194 41 82 33 145 -28 212 -36 39 -144
118 -209 152 -73 37 -77 37 -134 -1z"/>
<path d="M2374 3320 c-11 -4 -37 -27 -57 -51 l-37 -43 0 -253 c0 -252 0 -254
24 -289 50 -74 149 -115 229 -93 41 11 270 140 282 159 10 15 -14 170 -36 237
-56 169 -234 344 -346 342 -21 0 -47 -4 -59 -9z"/>
</g>
</svg>
